<svg width="65" height="65" viewBox="0 0 65 65" fill="none" xmlns="http://www.w3.org/2000/svg">
<rect width="65" height="65" rx="32.5" fill="#3B5AB4"/>
<g clip-path="url(#clip0)">
<path d="M45.4999 30.5H33.5001V18.4999C33.5001 17.6721 32.828 17 31.9999 17C31.1721 17 30.5 17.6721 30.5 18.4999V30.5H18.4999C17.6721 30.5 17 31.1721 17 31.9999C17 32.828 17.6721 33.5001 18.4999 33.5001H30.5V45.4999C30.5 46.328 31.1721 47.0001 31.9999 47.0001C32.828 47.0001 33.5001 46.328 33.5001 45.4999V33.5001H45.4999C46.328 33.5001 47.0001 32.828 47.0001 31.9999C47.0001 31.1721 46.328 30.5 45.4999 30.5Z" fill="white"/>
</g>
<defs>
<clipPath id="clip0">
<rect width="30" height="30" fill="white" transform="translate(17 17)"/>
</clipPath>
</defs>
</svg>
