<svg width="165" height="88" viewBox="0 0 165 88" fill="none" xmlns="http://www.w3.org/2000/svg">
<path d="M36.0719 51.632H13.6719L9.25593 62H0.679932L20.8399 17.2H29.0319L49.2559 62H40.5519L36.0719 51.632ZM33.3199 45.104L24.8719 25.52L16.4879 45.104H33.3199Z" fill="#AE17A8"/>
<path d="M86.6976 38.7039C89.1723 39.5146 91.1349 40.8799 92.5856 42.7999C94.0363 44.6772 94.7616 47.024 94.7616 49.84C94.7616 53.7226 93.2683 56.7306 90.2816 58.8639C87.2949 60.9546 82.9429 62 77.2256 62H54.9536V17.2H75.9456C81.2363 17.2 85.3109 18.2453 88.1696 20.336C91.0283 22.384 92.4576 25.2213 92.4576 28.8479C92.4576 31.0667 91.9456 33.0293 90.9216 34.736C89.8976 36.4426 88.4896 37.7652 86.6976 38.7039ZM63.2736 23.728V36.08H75.0496C77.9509 36.08 80.1696 35.5679 81.7056 34.5439C83.2843 33.4772 84.0736 31.9413 84.0736 29.936C84.0736 27.888 83.2843 26.3519 81.7056 25.3279C80.1696 24.2612 77.9509 23.728 75.0496 23.728H63.2736ZM76.7136 55.472C83.1563 55.472 86.3776 53.3172 86.3776 49.0079C86.3776 44.6987 83.1563 42.5439 76.7136 42.5439H63.2736V55.472H76.7136Z" fill="#3B5AB4"/>
<path d="M124.377 62.6401C119.854 62.6401 115.758 61.6588 112.089 59.6961C108.462 57.6908 105.604 54.9388 103.513 51.4401C101.465 47.9414 100.441 43.9948 100.441 39.6001C100.441 35.2054 101.486 31.2588 103.577 27.7601C105.668 24.2614 108.526 21.5308 112.153 19.5681C115.822 17.5628 119.918 16.5601 124.441 16.5601C128.11 16.5601 131.46 17.2001 134.489 18.4801C137.518 19.7601 140.078 21.6161 142.169 24.0481L136.793 29.1041C133.55 25.6054 129.561 23.8561 124.825 23.8561C121.753 23.8561 119.001 24.5388 116.569 25.9041C114.137 27.2268 112.238 29.0828 110.873 31.4721C109.508 33.8614 108.825 36.5708 108.825 39.6001C108.825 42.6294 109.508 45.3388 110.873 47.7281C112.238 50.1174 114.137 51.9948 116.569 53.3601C119.001 54.6828 121.753 55.3441 124.825 55.3441C129.561 55.3441 133.55 53.5734 136.793 50.0321L142.169 55.1521C140.078 57.5841 137.497 59.4401 134.425 60.7201C131.396 62.0001 128.046 62.6401 124.377 62.6401Z" fill="#982ECA"/>
<path d="M95.1209 85.065C94.4449 85.065 93.8382 84.9177 93.3009 84.623C92.7722 84.3283 92.3562 83.9167 92.0529 83.388C91.7496 82.8507 91.5979 82.2483 91.5979 81.581C91.5979 80.9137 91.7496 80.3157 92.0529 79.787C92.3562 79.2583 92.7722 78.8467 93.3009 78.552C93.8382 78.2573 94.4449 78.11 95.1209 78.11C95.7102 78.11 96.2346 78.227 96.6939 78.461C97.1619 78.6863 97.5302 79.02 97.7989 79.462L97.1099 79.93C96.8846 79.592 96.5986 79.3407 96.2519 79.176C95.9052 79.0027 95.5282 78.916 95.1209 78.916C94.6269 78.916 94.1806 79.0287 93.7819 79.254C93.3919 79.4707 93.0842 79.7827 92.8589 80.19C92.6422 80.5973 92.5339 81.061 92.5339 81.581C92.5339 82.1097 92.6422 82.5777 92.8589 82.985C93.0842 83.3837 93.3919 83.6957 93.7819 83.921C94.1806 84.1377 94.6269 84.246 95.1209 84.246C95.5282 84.246 95.9052 84.1637 96.2519 83.999C96.5986 83.8343 96.8846 83.583 97.1099 83.245L97.7989 83.713C97.5302 84.155 97.1619 84.493 96.6939 84.727C96.2259 84.9523 95.7016 85.065 95.1209 85.065ZM102.293 85.065C101.634 85.065 101.041 84.9177 100.512 84.623C99.9832 84.3197 99.5672 83.9037 99.2638 83.375C98.9605 82.8463 98.8088 82.2483 98.8088 81.581C98.8088 80.9137 98.9605 80.3157 99.2638 79.787C99.5672 79.2583 99.9832 78.8467 100.512 78.552C101.041 78.2573 101.634 78.11 102.293 78.11C102.952 78.11 103.545 78.2573 104.074 78.552C104.603 78.8467 105.014 79.2583 105.309 79.787C105.612 80.3157 105.764 80.9137 105.764 81.581C105.764 82.2483 105.612 82.8463 105.309 83.375C105.014 83.9037 104.603 84.3197 104.074 84.623C103.545 84.9177 102.952 85.065 102.293 85.065ZM102.293 84.246C102.778 84.246 103.212 84.1377 103.593 83.921C103.983 83.6957 104.286 83.3793 104.503 82.972C104.72 82.5647 104.828 82.101 104.828 81.581C104.828 81.061 104.72 80.5973 104.503 80.19C104.286 79.7827 103.983 79.4707 103.593 79.254C103.212 79.0287 102.778 78.916 102.293 78.916C101.808 78.916 101.37 79.0287 100.98 79.254C100.599 79.4707 100.295 79.7827 100.07 80.19C99.8532 80.5973 99.7448 81.061 99.7448 81.581C99.7448 82.101 99.8532 82.5647 100.07 82.972C100.295 83.3793 100.599 83.6957 100.98 83.921C101.37 84.1377 101.808 84.246 102.293 84.246ZM116.176 78.11C117.034 78.11 117.706 78.357 118.191 78.851C118.685 79.345 118.932 80.073 118.932 81.035V85H118.009V81.126C118.009 80.4153 117.836 79.8737 117.489 79.501C117.151 79.1283 116.67 78.942 116.046 78.942C115.336 78.942 114.777 79.163 114.369 79.605C113.962 80.0383 113.758 80.6407 113.758 81.412V85H112.835V81.126C112.835 80.4153 112.662 79.8737 112.315 79.501C111.977 79.1283 111.492 78.942 110.859 78.942C110.157 78.942 109.598 79.163 109.182 79.605C108.775 80.0383 108.571 80.6407 108.571 81.412V85H107.648V78.162H108.532V79.41C108.775 78.994 109.113 78.6733 109.546 78.448C109.98 78.2227 110.478 78.11 111.041 78.11C111.613 78.11 112.107 78.2313 112.523 78.474C112.948 78.7167 113.264 79.0763 113.472 79.553C113.724 79.1023 114.083 78.7513 114.551 78.5C115.028 78.24 115.57 78.11 116.176 78.11ZM124.958 78.11C125.6 78.11 126.18 78.2573 126.7 78.552C127.22 78.838 127.628 79.2453 127.922 79.774C128.217 80.3027 128.364 80.905 128.364 81.581C128.364 82.2657 128.217 82.8723 127.922 83.401C127.628 83.9297 127.22 84.3413 126.7 84.636C126.189 84.922 125.608 85.065 124.958 85.065C124.404 85.065 123.901 84.9523 123.45 84.727C123.008 84.493 122.644 84.155 122.358 83.713V87.522H121.435V78.162H122.319V79.514C122.597 79.0633 122.961 78.7167 123.411 78.474C123.871 78.2313 124.386 78.11 124.958 78.11ZM124.893 84.246C125.37 84.246 125.803 84.1377 126.193 83.921C126.583 83.6957 126.887 83.3793 127.103 82.972C127.329 82.5647 127.441 82.101 127.441 81.581C127.441 81.061 127.329 80.6017 127.103 80.203C126.887 79.7957 126.583 79.4793 126.193 79.254C125.803 79.0287 125.37 78.916 124.893 78.916C124.408 78.916 123.97 79.0287 123.58 79.254C123.199 79.4793 122.896 79.7957 122.67 80.203C122.454 80.6017 122.345 81.061 122.345 81.581C122.345 82.101 122.454 82.5647 122.67 82.972C122.896 83.3793 123.199 83.6957 123.58 83.921C123.97 84.1377 124.408 84.246 124.893 84.246ZM130.246 75.354H131.169V85H130.246V75.354ZM136.129 78.11C137.022 78.11 137.707 78.3353 138.183 78.786C138.66 79.228 138.898 79.8867 138.898 80.762V85H138.014V83.934C137.806 84.2893 137.499 84.5667 137.091 84.766C136.693 84.9653 136.216 85.065 135.661 85.065C134.899 85.065 134.292 84.883 133.841 84.519C133.391 84.155 133.165 83.674 133.165 83.076C133.165 82.4953 133.373 82.0273 133.789 81.672C134.214 81.3167 134.886 81.139 135.804 81.139H137.975V80.723C137.975 80.1337 137.811 79.6873 137.481 79.384C137.152 79.072 136.671 78.916 136.038 78.916C135.605 78.916 135.189 78.9897 134.79 79.137C134.392 79.2757 134.049 79.4707 133.763 79.722L133.347 79.033C133.694 78.7383 134.11 78.513 134.595 78.357C135.081 78.1923 135.592 78.11 136.129 78.11ZM135.804 84.337C136.324 84.337 136.771 84.22 137.143 83.986C137.516 83.7433 137.793 83.3967 137.975 82.946V81.828H135.83C134.66 81.828 134.075 82.2353 134.075 83.05C134.075 83.4487 134.227 83.765 134.53 83.999C134.834 84.2243 135.258 84.337 135.804 84.337ZM141.405 78.162H142.328V85H141.405V78.162ZM141.873 76.667C141.682 76.667 141.522 76.602 141.392 76.472C141.262 76.342 141.197 76.186 141.197 76.004C141.197 75.8307 141.262 75.679 141.392 75.549C141.522 75.419 141.682 75.354 141.873 75.354C142.064 75.354 142.224 75.419 142.354 75.549C142.484 75.6703 142.549 75.8177 142.549 75.991C142.549 76.1817 142.484 76.342 142.354 76.472C142.224 76.602 142.064 76.667 141.873 76.667ZM148.38 78.11C149.238 78.11 149.919 78.3613 150.421 78.864C150.933 79.358 151.188 80.0817 151.188 81.035V85H150.265V81.126C150.265 80.4153 150.088 79.8737 149.732 79.501C149.377 79.1283 148.87 78.942 148.211 78.942C147.475 78.942 146.89 79.163 146.456 79.605C146.032 80.0383 145.819 80.6407 145.819 81.412V85H144.896V78.162H145.78V79.423C146.032 79.007 146.378 78.6863 146.82 78.461C147.271 78.227 147.791 78.11 148.38 78.11ZM157.295 84.584C157.122 84.74 156.905 84.8613 156.645 84.948C156.394 85.026 156.13 85.065 155.852 85.065C155.211 85.065 154.717 84.8917 154.37 84.545C154.024 84.1983 153.85 83.7087 153.85 83.076V78.942H152.628V78.162H153.85V76.667H154.773V78.162H156.853V78.942H154.773V83.024C154.773 83.4313 154.873 83.7433 155.072 83.96C155.28 84.168 155.575 84.272 155.956 84.272C156.147 84.272 156.329 84.2417 156.502 84.181C156.684 84.1203 156.84 84.0337 156.97 83.921L157.295 84.584ZM160.808 85.065C160.254 85.065 159.721 84.987 159.209 84.831C158.707 84.6663 158.312 84.4627 158.026 84.22L158.442 83.492C158.728 83.7173 159.088 83.9037 159.521 84.051C159.955 84.1897 160.405 84.259 160.873 84.259C161.497 84.259 161.957 84.1637 162.251 83.973C162.555 83.7737 162.706 83.4963 162.706 83.141C162.706 82.8897 162.624 82.6947 162.459 82.556C162.295 82.4087 162.087 82.3003 161.835 82.231C161.584 82.153 161.25 82.0793 160.834 82.01C160.28 81.906 159.833 81.802 159.495 81.698C159.157 81.5853 158.867 81.399 158.624 81.139C158.39 80.879 158.273 80.5193 158.273 80.06C158.273 79.488 158.512 79.02 158.988 78.656C159.465 78.292 160.128 78.11 160.977 78.11C161.419 78.11 161.861 78.1707 162.303 78.292C162.745 78.4047 163.109 78.5563 163.395 78.747L162.992 79.488C162.429 79.098 161.757 78.903 160.977 78.903C160.388 78.903 159.942 79.007 159.638 79.215C159.344 79.423 159.196 79.696 159.196 80.034C159.196 80.294 159.279 80.502 159.443 80.658C159.617 80.814 159.829 80.931 160.08 81.009C160.332 81.0783 160.678 81.152 161.12 81.23C161.666 81.334 162.104 81.438 162.433 81.542C162.763 81.646 163.044 81.8237 163.278 82.075C163.512 82.3263 163.629 82.673 163.629 83.115C163.629 83.713 163.378 84.1897 162.875 84.545C162.381 84.8917 161.692 85.065 160.808 85.065Z" fill="#36367F"/>
</svg>
